<svg width="14" height="19" viewBox="0 0 14 19" fill="none" xmlns="http://www.w3.org/2000/svg">
<path d="M6.57694 0C2.95048 0 0 2.84121 0 6.33335C0 7.38169 0.272184 8.42112 0.789616 9.34306L6.21727 18.7959C6.28953 18.9219 6.42722 19 6.57694 19C6.72665 19 6.86434 18.9219 6.9366 18.7959L12.3663 9.33995C12.8817 8.42112 13.1539 7.38165 13.1539 6.33331C13.1539 2.84121 10.2034 0 6.57694 0ZM6.57694 9.5C4.76371 9.5 3.28849 8.07942 3.28849 6.33335C3.28849 4.58728 4.76371 3.16669 6.57694 3.16669C8.39016 3.16669 9.86539 4.58728 9.86539 6.33335C9.86539 8.07942 8.39016 9.5 6.57694 9.5Z" fill="#393939"/>
</svg>
