<svg width="19" height="13" viewBox="0 0 19 13" fill="none" xmlns="http://www.w3.org/2000/svg">
<path d="M18.8327 0.928711L13.0704 6.49989L18.8327 12.0711C18.9368 11.8592 19 11.625 19 11.3749V1.6249C19 1.37475 18.9368 1.14057 18.8327 0.928711Z" fill="#393939"/>
<path d="M17.3286 0H1.66855C1.4115 0 1.17084 0.0614972 0.953125 0.162861L8.31793 7.29346C8.96913 7.92714 10.0281 7.92714 10.6793 7.29346L18.0441 0.162861C17.8264 0.0614972 17.5857 0 17.3286 0Z" fill="#393939"/>
<path d="M0.167363 0.928818C0.063197 1.14068 0 1.37486 0 1.625V11.375C0 11.6251 0.063197 11.8593 0.167363 12.0712L5.92965 6.49999L0.167363 0.928818Z" fill="#393939"/>
<path d="M12.2818 7.26611L11.4664 8.05958C10.3814 9.11543 8.61581 9.11543 7.53077 8.05958L6.71541 7.26611L0.953125 12.8373C1.17084 12.9387 1.4115 13.0002 1.66855 13.0002H17.3286C17.5857 13.0002 17.8264 12.9387 18.0441 12.8373L12.2818 7.26611Z" fill="#393939"/>
</svg>
