<svg width="19" height="19" viewBox="0 0 19 19" fill="none" xmlns="http://www.w3.org/2000/svg">
<path d="M13.9792 12.3114C13.6544 12.121 13.2552 12.125 12.932 12.317L11.2952 13.2922C10.9288 13.5106 10.4712 13.485 10.1352 13.2226C9.55443 12.769 8.61923 12.0058 7.80563 11.1922C6.99203 10.3786 6.22883 9.44338 5.77523 8.86258C5.51283 8.52658 5.48723 8.06898 5.70563 7.70258L6.68083 6.06578C6.87362 5.74258 6.87522 5.34018 6.68482 5.01538L4.28322 0.912977C4.05042 0.516178 3.58802 0.320977 3.14082 0.430577C2.70642 0.536177 2.14242 0.793777 1.55123 1.38578C-0.299975 3.23698 -1.28318 6.35938 5.67843 13.321C12.64 20.2826 15.7616 19.3002 17.6136 17.4482C18.2064 16.8554 18.4632 16.2906 18.5696 15.8554C18.6776 15.409 18.4856 14.9498 18.0896 14.7178C17.1008 14.1394 14.968 12.8906 13.9792 12.3114V12.3114Z" fill="#393939"/>
</svg>
