<svg width="22" height="22" viewBox="0 0 22 22" fill="none" xmlns="http://www.w3.org/2000/svg">
<path d="M18.6799 0.919922H3.31992C1.99512 0.919922 0.919922 1.99512 0.919922 3.31992V18.6799C0.919922 20.0047 1.99512 21.0799 3.31992 21.0799H18.6799C20.0047 21.0799 21.0799 20.0047 21.0799 18.6799V3.31992C21.0799 1.99512 20.0047 0.919922 18.6799 0.919922ZM17.1055 14.8399L15.3151 14.8351C15.3151 14.8351 15.2767 14.8399 15.2143 14.8399C15.0703 14.8399 14.7727 14.8015 14.4223 14.5615C13.7935 14.1247 13.1935 13.0399 12.7183 13.0399C12.6847 13.0399 12.6559 13.0447 12.6271 13.0543C12.2143 13.1839 12.0895 13.5967 12.0895 14.1007C12.0895 14.2783 11.9647 14.3599 11.6287 14.3599H10.7023C9.66552 14.3599 8.66232 14.3359 7.53432 13.1023C5.87352 11.2831 4.31832 8.04792 4.31832 8.04792C4.31832 8.04792 4.23192 7.86072 4.32312 7.75032C4.40952 7.64952 4.61112 7.63992 4.68792 7.63992C4.70712 7.63992 4.71672 7.63992 4.71672 7.63992H6.63672C6.63672 7.63992 6.81432 7.67352 6.94392 7.76952C7.05432 7.85112 7.11192 7.99992 7.11192 7.99992C7.11192 7.99992 7.43832 8.63352 7.84632 9.34872C8.53272 10.5295 8.90232 10.9231 9.16632 10.9231C9.20952 10.9231 9.25272 10.9135 9.29592 10.8895C9.68952 10.6735 9.57432 8.92632 9.57432 8.92632C9.57432 8.92632 9.57912 8.29272 9.37272 8.01432C9.21432 7.79352 8.91192 7.73112 8.77752 7.71192C8.67192 7.69752 8.84472 7.44792 9.07512 7.33272C9.37272 7.18872 9.86712 7.15992 10.4623 7.15992H10.7503C11.3119 7.16952 11.3263 7.22712 11.5471 7.27992C12.2095 7.43832 11.9839 8.05752 11.9839 9.54072C11.9839 10.0159 11.8975 10.6831 12.2383 10.9087C12.2623 10.9231 12.2959 10.9327 12.3391 10.9327C12.5599 10.9327 13.0351 10.6495 13.7935 9.36792C14.2159 8.63832 14.5423 7.91352 14.5423 7.91352C14.5423 7.91352 14.6143 7.78392 14.7247 7.71672C14.8303 7.65432 14.8303 7.65432 14.9695 7.65432H14.9839C15.1375 7.65432 16.6639 7.63992 16.9999 7.63992H17.0383C17.3599 7.63992 17.6527 7.64472 17.7055 7.84152C17.7823 8.13912 17.4703 8.67192 16.6495 9.77592C15.2959 11.5855 15.1423 11.4511 16.2655 12.4975C17.3407 13.4959 17.5615 13.9807 17.5999 14.0431C18.0463 14.7823 17.1055 14.8399 17.1055 14.8399Z" fill="#8C8C8C"/>
</svg>
