<svg width="11" height="24" viewBox="0 0 11 24" fill="none" xmlns="http://www.w3.org/2000/svg">
<path d="M10.6633 0H7.17025C3.73825 0 1.00025 2.72 1.00025 8C1.00025 11.168 2.23725 13.504 4.74925 14.656L0.0612545 23.488C-0.0917464 23.777 0.0612548 24 0.306254 24H2.48125C2.66525 24 2.78825 23.936 2.84925 23.777L7.25025 15H8.50025L8.49225 23.777C8.49225 23.873 8.58425 24 8.70625 24H10.7553C10.9393 24 11.0003 23.904 11.0003 23.745V0.32C11.0003 0.0959999 10.8773 0 10.6633 0H10.6633ZM8.50025 13H7.00025C5.50025 13 3.50025 11.84 3.50025 8C3.50025 3.999 5.13125 2 7.00025 2H8.50025V13Z" fill="#8F0057"/>
</svg>
